<svg xmlns="http://www.w3.org/2000/svg" xmlns:xlink="http://www.w3.org/1999/xlink" version="1.1"
                        id="svg-7303" x="0px" y="0px" width="100px" height="100px" viewBox="0 0 131.6 78.1"
                        style="enable-background:new 0 0 131.6 78.1;" xml:space="preserve">
                        <g id="XMLID_67_">
                            <path class="st0"
                                d="M122.3,51.7l0.4-0.1l-4.9,8.2c-0.6,0.9-0.3,2.2,0.7,2.7c0.9,0.6,2.2,0.3,2.7-0.7l4.9-8.2l0.1,0.4 c0.1,0.5,0.5,1,0.9,1.2c0.4,0.3,1,0.3,1.5,0.2c1.1-0.3,1.7-1.3,1.4-2.4l-1.2-4.9c-0.3-1.1-1.3-1.7-2.4-1.4l-4.9,1.2 c-1.1,0.3-1.7,1.3-1.4,2.4C120.1,51.3,121.2,52,122.3,51.7z">
                            </path>
                        </g>
                        <g>
                            <path class="st0"
                                d="M105.5,77.8c-0.6,0-1.2-0.3-1.6-0.8c-0.6-0.9-0.4-2.2,0.5-2.8c7.3-5.2,13.5-12.7,18.4-22.4 c0.5-1,1.7-1.4,2.7-0.9c1,0.5,1.4,1.7,0.9,2.7c-5.2,10.3-11.8,18.3-19.6,23.9C106.3,77.7,105.9,77.8,105.5,77.8z">
                            </path>
                        </g>
                        <g id="XMLID_66_">
                            <path class="st0"
                                d="M11.6,49.4c0.3-1.1-0.3-2.1-1.4-2.4l-4.9-1.2c-1.1-0.3-2.1,0.3-2.4,1.4l-1.2,4.9c-0.3,1.1,0.3,2.1,1.4,2.4 c0.5,0.1,1.1,0.1,1.5-0.2c0.4-0.3,0.8-0.7,0.9-1.2l0.1-0.4l4.9,8.2c0.6,0.9,1.8,1.3,2.7,0.7s1.3-1.8,0.7-2.7L9,50.6l0.4,0.1 C10.5,51,11.5,50.4,11.6,49.4z">
                            </path>
                        </g>
                        <g>
                            <path class="st0"
                                d="M26.2,76.9c-0.4,0-0.8-0.1-1.2-0.4C17.2,71,10.6,62.9,5.4,52.6c-0.5-1-0.1-2.2,0.9-2.7c1-0.5,2.2-0.1,2.7,0.9 c4.9,9.7,11.1,17.3,18.4,22.4c0.9,0.6,1.1,1.9,0.5,2.8C27.4,76.6,26.8,76.9,26.2,76.9z">
                            </path>
                        </g>
                        <g>
                            <path class="st0"
                                d="M65.6,67.8c0,0-0.1,0-0.1,0c-0.3,0-0.6,0-0.9-0.2c-0.5-0.2-0.8-0.6-1-1l-40.8-38c-0.7-0.6-0.8-1.7-0.4-2.5 C35.4,4,36.7,3.4,37.3,3.1c0.4-0.2,1.4-0.7,27.7-1.1C91.5,1.5,92.4,2,92.9,2.3c0.6,0.3,1.9,1,15.7,23.9c0.5,0.8,0.3,1.8-0.3,2.5 l-40.8,38c-0.2,0.5-0.6,0.8-1,1C66.2,67.8,65.9,67.8,65.6,67.8z M26.7,26.8L65.5,63l38.8-36.2C98.8,17.6,92.7,8,91.1,5.9 c-5.4-0.4-46.4,0.2-51.9,0.8C37.6,8.7,31.9,17.9,26.7,26.8z M39.4,6.4L39.4,6.4z">
                            </path>
                        </g>
                        <g>
                            <path class="st0"
                                d="M105.1,28.7H25.8c-1.1,0-2-0.9-2-2s0.9-2,2-2h79.4c1.1,0,2,0.9,2,2S106.2,28.7,105.1,28.7z">
                            </path>
                        </g>
                        <g>
                            <path class="st0"
                                d="M65.8,66.6c-0.7,0-1.4-0.4-1.7-1L41.9,26.6c-0.2-0.4-0.3-0.9-0.2-1.3l3.5-20c0.2-1.1,1.2-1.8,2.3-1.6 c1.1,0.2,1.8,1.2,1.6,2.3l-3.4,19.3l21.8,38.3c0.5,1,0.2,2.2-0.7,2.7C66.4,66.5,66.1,66.6,65.8,66.6z">
                            </path>
                        </g>
                        <g>
                            <path class="st0"
                                d="M65.8,66.6c-0.3,0-0.7-0.1-1-0.3c-1-0.5-1.3-1.8-0.7-2.7l21.8-38.3L82.4,6c-0.2-1.1,0.5-2.1,1.6-2.3 c1.1-0.2,2.1,0.5,2.3,1.6l3.5,20c0.1,0.5,0,0.9-0.2,1.3L67.5,65.6C67.1,66.2,66.5,66.6,65.8,66.6z">
                            </path>
                        </g>
                    </svg>