<svg xmlns="http://www.w3.org/2000/svg" xmlns:xlink="http://www.w3.org/1999/xlink" version="1.1"
                        id="svg-2517" x="0px" y="0px" width="100px" height="100px" viewBox="0 0 150.1 111.7"
                        style="enable-background:new 0 0 150.1 111.7;" xml:space="preserve">
                        <g id="XMLID_1_">
                            <g id="XMLID_2_">
                                <path id="XMLID_8_" class="st0"
                                    d="M123.4,84.9c-2.2-0.7-4.3-1.7-6.2-2.9c0.6-0.6,1.3-1.2,1.9-1.8c0.9-0.9,0.9-2.1,0-3 c-0.9-0.9-2.1-0.9-3,0c-22.1,22.1-58.1,22.1-80.2,0c-0.9-0.9-2.1-0.9-3,0c-0.9,0.9-0.9,2.1,0,3c0.6,0.6,1.3,1.3,1.9,1.8 c-1.9,1.2-4,2.2-6.2,2.9c-1.1,0.3-1.7,1.5-1.4,2.7c0.3,0.9,1.1,1.5,2,1.5c0.2,0,0.4,0,0.6-0.1c2.9-1,5.6-2.3,8.2-4 c1.7,1.4,3.5,2.7,5.4,3.8c-2,2-4.4,3.7-6.8,5.1c-1,0.5-1.4,1.8-0.9,2.8c0.4,0.7,1.1,1.1,1.8,1.1c0.3,0,0.6-0.1,1-0.2 c3.2-1.7,6.1-3.9,8.5-6.6c1.8,1,3.6,1.8,5.5,2.6c-1.5,2.6-3.5,4.8-5.8,6.7c-0.9,0.7-1.1,2-0.3,2.9c0.4,0.5,1,0.7,1.6,0.7 c0.4,0,1-0.1,1.3-0.4c2.9-2.3,5.3-5.2,7.1-8.4c2.1,0.7,4.4,1.3,6.6,1.8c-0.6,2.8-1.6,5.5-3.1,8c-0.5,1-0.2,2.2,0.7,2.9 c0.3,0.2,0.6,0.3,1.1,0.3c0.7,0,1.4-0.4,1.8-1.1c1.7-3,2.9-6.1,3.5-9.4c2.1,0.3,4.4,0.5,6.5,0.5v8c0,1.2,1,2.1,2.1,2.1 c1.2,0,2.1-1,2.1-2.1v-8c2.2-0.1,4.4-0.2,6.5-0.5c0.6,3.3,1.8,6.4,3.5,9.4c0.4,0.6,1.1,1.1,1.8,1.1c0.3,0,0.7-0.1,1.1-0.3 c1-0.5,1.4-1.8,0.7-2.9c-1.4-2.6-2.4-5.2-3.1-8c2.2-0.4,4.5-1.1,6.6-1.8c1.8,3.2,4.3,6.1,7.1,8.4c0.4,0.3,0.9,0.4,1.3,0.4 c0.6,0,1.2-0.2,1.6-0.7c0.7-0.9,0.6-2.2-0.3-2.9c-2.3-1.9-4.3-4.1-5.8-6.7c1.9-0.7,3.7-1.6,5.5-2.6c2.4,2.7,5.3,4.9,8.5,6.6 c0.3,0.2,0.6,0.2,1,0.2c0.7,0,1.5-0.4,1.8-1.1c0.5-1,0.2-2.2-0.9-2.8c-2.6-1.4-4.8-3.1-6.8-5.1c1.9-1.2,3.7-2.4,5.4-3.8 c2.6,1.7,5.3,3.1,8.2,4c0.2,0.1,0.4,0.1,0.6,0.1c0.9,0,1.7-0.5,2-1.5C125.1,86.4,124.5,85.3,123.4,84.9L123.4,84.9z">
                                </path>
                                <path id="XMLID_7_" class="st0"
                                    d="M73.8,9l0.3-0.3v10.2c0,1.2,1,2.1,2.1,2.1c1.2,0,2.1-1,2.1-2.1V8.8l0.3,0.3 c0.4,0.4,1,0.6,1.5,0.6s1.1-0.2,1.5-0.6c0.9-0.9,0.9-2.1,0-3l-4-3.8c-0.9-0.9-2.1-0.9-3,0l-3.8,3.8c-0.9,0.9-0.9,2.1,0,3 C71.6,9.9,72.9,9.9,73.8,9z">
                                </path>
                                <path id="XMLID_6_" class="st0"
                                    d="M47.2,14l0.3-0.3v10.2c0,1.2,1,2.1,2.1,2.1s2.1-1,2.1-2.1V13.7l0.3,0.3c0.4,0.4,1,0.6,1.5,0.6 s1.1-0.2,1.5-0.6c0.9-0.9,0.9-2.1,0-3l-3.8-3.8c-0.9-0.9-2.1-0.9-3,0L44.4,11c-0.9,0.9-0.9,2.1,0,3C45.1,14.9,46.3,14.9,47.2,14z">
                                </path>
                                <path id="XMLID_5_" class="st0"
                                    d="M100.3,14l0.3-0.3v10.2c0,1.2,1,2.1,2.1,2.1c1.2,0,2.1-1,2.1-2.1V13.7l0.3,0.3 c0.4,0.4,1,0.6,1.5,0.6s1.1-0.2,1.5-0.6c0.9-0.9,0.9-2.1,0-3l-3.8-3.8c-0.9-0.9-2.1-0.9-3,0L97.6,11c-0.9,0.9-0.9,2.1,0,3 C98.2,14.9,99.5,14.9,100.3,14L100.3,14z">
                                </path>
                                <path id="XMLID_4_" class="st0"
                                    d="M128,58.9c-1.7-2.1-3.5-4.1-5.4-6.1c-12.8-12.8-29.7-20.1-47.6-20.6 c-18-0.6-35.2,5.5-48.7,17.2c-2.8,2.4-3.9,6.3-3,9.9c0.9,3.1,3.1,5.5,6.1,6.5c3,1.1,6.3,0.5,8.8-1.3c9.1-6.6,19.9-10.7,31-12 c1.2-0.1,1.9-1.2,1.8-2.3c-0.1-1.2-1.2-1.9-2.3-1.8c-11.9,1.4-23.3,5.8-33.1,12.8c-1.5,1.1-3.3,1.3-5,0.7c-1.7-0.6-3-1.9-3.5-3.7 c-0.5-2,0.1-4.3,1.7-5.6c26.3-22.9,66-21.4,90.7,3.2c1.8,1.8,3.5,3.7,5.1,5.7c0.3,0.4,0.4,1,0.3,1.5c-0.2,1-0.9,1.3-1.2,1.4 c-0.3,0.1-1.1,0.3-1.8-0.3c-9.8-8.1-21.6-13.3-34-15.3c-1.2-0.2-2.2,0.6-2.3,1.7c-0.2,1.2,0.6,2.2,1.7,2.3 c11.8,1.8,22.9,6.8,32.1,14.4c1.1,1,2.4,1.4,3.8,1.4c0.6,0,1.4-0.1,2-0.3c2-0.7,3.4-2.3,3.8-4.5C129.5,62.1,129,60.3,128,58.9 L128,58.9z">
                                </path>
                                <path id="XMLID_3_" class="st0"
                                    d="M79.8,51.9c0.4-0.4,0.6-1,0.6-1.5s-0.2-1.1-0.6-1.5c-0.4-0.4-1-0.6-1.5-0.6s-1.1,0.2-1.5,0.6 c-0.4,0.4-0.6,1-0.6,1.5s0.2,1.1,0.6,1.5c0.4,0.4,1,0.6,1.5,0.6C79,52.5,79.5,52.2,79.8,51.9z">
                                </path>
                            </g>
                        </g>
                    </svg>