<svg xmlns="http://www.w3.org/2000/svg" xmlns:xlink="http://www.w3.org/1999/xlink" version="1.1" id="svg-2776" x="0px"
    y="0px" width="100px" height="100px" viewBox="0 0 150.1 111.7" style="enable-background:new 0 0 150.1 111.7;"
    xml:space="preserve">
    <g id="XMLID_74_">
        <path class="st0"
            d="M120.8,80.4c-2.1-0.7-4-1.6-5.8-2.7c0.6-0.6,1.2-1.1,1.8-1.7c0.8-0.8,0.8-2,0-2.8s-2-0.8-2.8,0 C93.2,94,59.4,94,38.6,73.2c-0.8-0.8-2-0.8-2.8,0s-0.8,2,0,2.8c0.6,0.6,1.2,1.2,1.8,1.7c-1.8,1.1-3.8,2.1-5.8,2.7 c-1,0.3-1.6,1.4-1.3,2.5c0.3,0.8,1,1.4,1.9,1.4c0.2,0,0.4,0,0.6-0.1c2.7-0.9,5.3-2.2,7.7-3.8c1.6,1.3,3.3,2.5,5.1,3.6 c-1.9,1.9-4.1,3.5-6.4,4.8c-0.9,0.5-1.3,1.7-0.8,2.6c0.4,0.7,1,1,1.7,1c0.3,0,0.6-0.1,0.9-0.2c3-1.6,5.7-3.7,8-6.2 c1.7,0.9,3.4,1.7,5.2,2.4c-1.4,2.4-3.3,4.5-5.5,6.3c-0.8,0.7-1,1.9-0.3,2.7c0.4,0.5,0.9,0.7,1.5,0.7c0.4,0,0.9-0.1,1.2-0.4 c2.7-2.2,5-4.9,6.7-7.9c2,0.7,4.1,1.2,6.2,1.7c-0.6,2.6-1.5,5.2-2.9,7.5c-0.5,0.9-0.2,2.1,0.7,2.7c0.3,0.2,0.6,0.3,1,0.3 c0.7,0,1.3-0.4,1.7-1c1.6-2.8,2.7-5.7,3.3-8.8c2,0.3,4.1,0.5,6.1,0.5v7.5c0,1.1,0.9,2,2,2s2-0.9,2-2v-7.5c2.1-0.1,4.1-0.2,6.1-0.5 c0.6,3.1,1.7,6,3.3,8.8c0.4,0.6,1,1,1.7,1c0.3,0,0.7-0.1,1-0.3c0.9-0.5,1.3-1.7,0.7-2.7c-1.3-2.4-2.3-4.9-2.9-7.5 c2.1-0.4,4.2-1,6.2-1.7c1.7,3,4,5.7,6.7,7.9c0.4,0.3,0.8,0.4,1.2,0.4c0.6,0,1.1-0.2,1.5-0.7c0.7-0.8,0.6-2.1-0.3-2.7 c-2.2-1.8-4-3.9-5.5-6.3c1.8-0.7,3.5-1.5,5.2-2.4c2.3,2.5,5,4.6,8,6.2c0.3,0.2,0.6,0.2,0.9,0.2c0.7,0,1.4-0.4,1.7-1 c0.5-0.9,0.2-2.1-0.8-2.6c-2.4-1.3-4.5-2.9-6.4-4.8c1.8-1.1,3.5-2.3,5.1-3.6c2.4,1.6,5,2.9,7.7,3.8c0.2,0.1,0.4,0.1,0.6,0.1 c0.8,0,1.6-0.5,1.9-1.4C122.4,81.8,121.8,80.7,120.8,80.4L120.8,80.4z">
        </path>
    </g>
    <g id="XMLID_73_">
        <path class="st0"
            d="M141.3,84.3l0.4-0.1l-4.9,8.2c-0.6,0.9-0.3,2.2,0.7,2.7c0.9,0.6,2.2,0.3,2.7-0.7l4.9-8.2l0.1,0.4 c0.1,0.5,0.5,1,0.9,1.2c0.4,0.3,1,0.3,1.5,0.2c1.1-0.3,1.7-1.3,1.4-2.4l-1.2-4.9c-0.3-1.1-1.3-1.7-2.4-1.4l-4.9,1.2 c-1.1,0.3-1.7,1.3-1.4,2.4C139.2,84,140.2,84.6,141.3,84.3z">
        </path>
    </g>
    <g id="XMLID_72_">
        <path class="st0"
            d="M128.2,26.3l0,0.4l-7.4-6.2c-0.8-0.7-2.1-0.6-2.8,0.2c-0.7,0.8-0.6,2.1,0.2,2.8l7.4,6.2l-0.4,0 c-0.6,0-1,0.3-1.4,0.7c-0.3,0.4-0.5,0.9-0.4,1.5c0.1,1.1,1,1.9,2.1,1.8l5.1-0.4c1.1-0.1,1.9-1,1.8-2.1l-0.4-5.1 c-0.1-1.1-1-1.9-2.1-1.8C128.9,24.2,128.1,25.1,128.2,26.3z">
        </path>
    </g>
    <g id="XMLID_71_">
        <path class="st0"
            d="M19,24.3c-1.1-0.1-2,0.7-2.1,1.8l-0.4,5.1c-0.1,1.1,0.7,2,1.8,2.1l5.1,0.4c1.1,0.1,2-0.7,2.1-1.8 c0-0.6-0.1-1.1-0.4-1.5c-0.3-0.4-0.8-0.6-1.4-0.7l-0.4,0l7.4-6.2c0.8-0.7,1-2,0.2-2.8c-0.7-0.8-2-1-2.8-0.2l-7.4,6.2l0-0.4 C20.7,25.1,20,24.2,19,24.3z">
        </path>
    </g>
    <g id="XMLID_70_">
        <path class="st0"
            d="M125.1,55.9c-1.6-2-3.3-3.9-5.1-5.7c-12-12-27.9-18.9-44.8-19.4C58.3,30.2,42.1,36,29.4,47 c-2.6,2.3-3.7,5.9-2.8,9.3c0.8,2.9,2.9,5.2,5.7,6.1c2.8,1,5.9,0.5,8.3-1.2c8.6-6.2,18.7-10.1,29.2-11.3c1.1-0.1,1.8-1.1,1.7-2.2 c-0.1-1.1-1.1-1.8-2.2-1.7c-11.2,1.3-21.9,5.5-31.1,12c-1.4,1-3.1,1.2-4.7,0.7c-1.6-0.6-2.8-1.8-3.3-3.5c-0.5-1.9,0.1-4,1.6-5.3 c24.7-21.5,62.1-20.1,85.3,3c1.7,1.7,3.3,3.5,4.8,5.4c0.3,0.4,0.4,0.9,0.3,1.4c-0.2,0.9-0.8,1.2-1.1,1.3c-0.3,0.1-1,0.3-1.7-0.3 c-9.2-7.6-20.3-12.5-32-14.4c-1.1-0.2-2.1,0.6-2.2,1.6C85,49,85.8,50,86.8,50.1c11.1,1.7,21.5,6.4,30.2,13.5c1,0.9,2.3,1.3,3.6,1.3 c0.6,0,1.3-0.1,1.9-0.3c1.9-0.7,3.2-2.2,3.6-4.2C126.5,58.9,126.1,57.2,125.1,55.9L125.1,55.9z">
        </path>
    </g>
    <g id="XMLID_69_">
        <path class="st0"
            d="M79.8,49.3c0.4-0.4,0.6-0.9,0.6-1.4s-0.2-1-0.6-1.4c-0.4-0.4-0.9-0.6-1.4-0.6s-1,0.2-1.4,0.6 c-0.4,0.4-0.6,0.9-0.6,1.4s0.2,1,0.6,1.4s0.9,0.6,1.4,0.6C79,49.9,79.5,49.6,79.8,49.3z">
        </path>
    </g>
    <g>
        <path class="st0"
            d="M124.5,110.5c-0.6,0-1.2-0.3-1.6-0.8c-0.6-0.9-0.4-2.2,0.5-2.8c7.3-5.2,13.5-12.7,18.4-22.4 c0.5-1,1.7-1.4,2.7-0.9s1.4,1.7,0.9,2.7c-5.2,10.3-11.8,18.3-19.6,23.9C125.3,110.3,124.9,110.5,124.5,110.5z">
        </path>
    </g>
    <g id="XMLID_68_">
        <path class="st0"
            d="M10.6,82.1c0.3-1.1-0.3-2.1-1.4-2.4l-4.9-1.2c-1.1-0.3-2.1,0.3-2.4,1.4l-1.2,4.9C0.3,85.9,1,86.9,2,87.2 c0.5,0.1,1.1,0.1,1.5-0.2s0.8-0.7,0.9-1.2l0.1-0.4l4.9,8.2c0.6,0.9,1.8,1.3,2.7,0.7c0.9-0.6,1.3-1.8,0.7-2.7L8,83.3l0.4,0.1 C9.5,83.7,10.5,83.1,10.6,82.1z">
        </path>
    </g>
    <g>
        <path class="st0"
            d="M25.2,109.5c-0.4,0-0.8-0.1-1.2-0.4c-7.8-5.5-14.4-13.6-19.6-23.9c-0.5-1-0.1-2.2,0.9-2.7 c1-0.5,2.2-0.1,2.7,0.9c4.9,9.7,11.1,17.2,18.4,22.4c0.9,0.6,1.1,1.9,0.5,2.8C26.4,109.2,25.8,109.5,25.2,109.5z">
        </path>
    </g>
    <g>
        <path class="st0"
            d="M125.2,28.8c-0.5,0-1-0.2-1.4-0.5c-21-19.8-43.2-26.4-66-19.8c-17.1,5-28.2,16-28.4,16.1c-0.8,0.8-2,0.8-2.8,0 c-0.8-0.8-0.8-2,0-2.8C27,21.3,38.4,10,56.5,4.7c30.3-8.9,54.8,6.3,70.1,20.6c0.8,0.8,0.8,2,0.1,2.8 C126.2,28.6,125.7,28.8,125.2,28.8z">
        </path>
    </g>
</svg>